<svg width="180" height="166" viewBox="0 0 180 166" fill="none" xmlns="http://www.w3.org/2000/svg">
<path d="M85.6 6.4C80.7 13.3 80.1 15 82.6 15C83.8 15 83.3 16.3 80.6 20C76.5 25.7 76.4 26 78.5 26C80.6 26 80.4 26.5 77 31.5C75.4 33.9 74 36.3 74 36.9C74 37.6 76.7 38 81 38H88V42.5C88 46.8 88.1 47 91 47C93.9 47 94 46.8 94 42.5V38H101C105.3 38 108 37.6 108 36.9C108 36.3 106.7 33.9 105 31.5C101.6 26.5 101.4 26 103.5 26C105.6 26 105.4 25.5 101.8 20.2C99.8 17.3 99.1 15.5 99.8 15.2C100.5 15 101 14.4 101 13.9C101 12.2 92.5 -7.00355e-07 91.3 -7.00355e-07C90.7 -7.00355e-07 88.1 2.9 85.6 6.4ZM89.4 7.5C86.1 11.9 87.2 13.7 90.6 9.5L93 6.5L94.9 9C96.5 11 96.6 11.6 95.4 12.5C94.2 13.3 94.6 14.4 97.5 18.7C100.1 22.6 100.6 24 99.5 24C97.3 24 97.6 25.6 101 30.6L104.1 35H91H77.9L81 30.6C84.3 25.8 84.6 24.4 82.8 23.8C82.1 23.5 82.9 21.6 85 18.5C87.9 14.3 88.1 13.5 86.8 12.6C85.5 11.8 85.6 11.2 87.9 7.9C89.3 5.8 90.9 4.1 91.3 4C91.7 4 90.9 5.6 89.4 7.5Z" fill="black"/>
<path d="M163.6 7.00001C157.1 9.50001 156.9 9.70001 158.9 11.1C161 12.4 159.8 13.8 125.8 47.8L90.5 83L56 48.5C23.6 16 21.6 13.8 23.4 12.5C24.5 11.7 25.2 10.8 24.9 10.6C24 9.70001 11.6 5.00001 11.2 5.40001C11 5.70001 12 9.10001 13.6 13C16.3 19.9 16.4 20.1 17.9 18.1C19.5 16.1 20.5 17 54 50.5L88.5 85L55.1 118.4C36.7 136.8 21.3 151.7 20.8 151.4C19.9 150.8 11.9 153 10.5 154.2C10 154.7 10.9 155.5 12.7 156.2C14.6 156.9 16.9 159.1 18.6 161.7C20.1 164.1 21.5 165.9 21.7 165.6C22.2 165.1 23 161.2 23.4 157.1C23.7 154.2 28.1 149.4 57.1 120.4L90.5 87L124.7 121.2C143.5 140 158.7 155.7 158.4 156.1C157.8 157.2 160.1 166 161 166C161.5 166 162.8 164.4 163.9 162.4C165.1 160.4 167.4 158.3 169 157.7C170.7 157.1 171.9 156.1 171.7 155.6C171.4 154.6 163 151.9 162 152.5C161.7 152.7 145.9 137.6 127 119L92.5 85.2L127.5 50.1C161.8 15.7 162.5 15 164.1 17.1C165.7 19.2 165.8 19.1 168.5 12.1C170.1 8.20001 171.1 4.80001 170.9 4.70001C170.7 4.50001 167.4 5.50001 163.6 7.00001Z" fill="black"/>
<path d="M146.3 70.7C143.2 75 136.9 83.6 132.3 89.8C127.7 96 124 101.5 124 102C124 102.6 134.2 103 152.1 103C178.6 103 180.2 102.9 179.8 101.2C179.3 99.3 154.4 64.4 152.9 63.5C152.5 63.2 149.5 66.4 146.3 70.7ZM158 74.4L162.2 80.2L160 82.4L157.8 84.5L156.3 82.2C154.3 79.4 150.6 79.4 148.6 82.2L147 84.4L144.9 82.3L142.7 80.2L147.6 73.6C150.2 70 152.7 67.3 153.1 67.7C153.4 68.2 155.6 71.1 158 74.4ZM158.3 86C159.6 86 161.3 85.3 162 84.5C162.7 83.7 163.6 83.2 164 83.5C164.4 83.8 167.5 87.8 170.9 92.5L177 101H152.4C133.1 101 128 100.7 128.6 99.7C129.3 98.7 139.7 84.2 140.6 83.1C140.8 82.9 141.8 83.4 142.8 84.3C145.3 86.6 148.3 86.4 150.6 83.9L152.5 81.8L154.1 83.9C155.1 85.1 156.9 86 158.3 86Z" fill="black"/>
<path d="M4.00001 81.5C4.00001 97.3 3.90001 98 2.00001 98C-0.599993 98 -0.599993 100.6 1.90001 102C3.10001 102.6 13.7 103 29.2 103C50.5 103 54.9 102.8 56.8 101.4C59.5 99.5 59.6 98 57 98C55.1 98 55 97.3 55 81.5V65H29.5H4.00001V81.5ZM53 82.5V98H29.5H6.00001V82.5V67H29.5H53V82.5Z" fill="black"/>
<path d="M7.40001 69.3C7.20001 70 7.10001 76.2 7.20001 83.1L7.50001 95.5H29H50.5L50.8 81.7L51.1 68H29.5C12.7 68 7.80001 68.3 7.40001 69.3ZM49 82V94H29H9.00001V82V70H29H49V82Z" fill="black"/>
<path d="M86.4 124.6C78.9 132.1 77.9 141.7 83.9 146.8C85.3 148 85.3 148.1 83.5 147.5C78.7 145.9 75.4 145.8 74.1 147.4C72.7 149.1 73.5 153 75.2 153C75.8 153 75.5 153.9 74.6 154.9C73.5 156.2 73.1 157.6 73.5 158.9C74.3 161.5 77.8 161.6 84.4 159.4C88.9 157.9 89.6 157.9 94.9 159.5C98 160.4 101.7 161 103 160.8C106 160.4 106.8 157.5 104.5 155C103.1 153.4 103.1 153.2 104.5 152.7C106.4 151.9 106.5 148.6 104.5 147C103.1 145.8 99.7 146 95.7 147.6C94.3 148.1 94.5 147.6 96.4 145.7C98.4 143.6 99 142.1 99 138.5C99 134.1 96.8 128 95.2 128C94.7 128 93.8 128.6 93.1 129.2C92 130.3 91.9 129.7 92.4 125.7C93.3 119.7 91.6 119.4 86.4 124.6Z" fill="black"/>
</svg>
